<svg xmlns="http://www.w3.org/2000/svg" viewBox="0 0 500 500"><g id="freepik--Shadow--inject-36"><ellipse id="freepik--path--inject-36" cx="250" cy="416.24" rx="193.89" ry="11.32" style="fill:#f5f5f5"></ellipse></g><g id="freepik--Content--inject-36"><path d="M304,263.13h135a29.21,29.21,0,0,0,28.93-27.81l2.92-72.6a8.54,8.54,0,0,0-8.61-9H317.34a9.41,9.41,0,0,0-9.33,9l-2.93,72.6a29.2,29.2,0,0,1-28.92,27.81Z" style="fill:#282462"></path><path d="M304,263.13h135a29.21,29.21,0,0,0,28.93-27.81l2.92-72.6a8.54,8.54,0,0,0-8.61-9H317.34a9.41,9.41,0,0,0-9.33,9l-2.93,72.6a29.2,29.2,0,0,1-28.92,27.81Z" style="fill:#fff;opacity:0.7000000000000001"></path><path d="M448.1,185.77H328.69a2.81,2.81,0,0,1-2.83-3l.32-7.77a3.08,3.08,0,0,1,3.06-2.94H448.65a2.8,2.8,0,0,1,2.82,2.94l-.31,7.77A3.1,3.1,0,0,1,448.1,185.77Z" style="fill:#fff;opacity:0.6000000000000001"></path><path d="M448.31,200.44h-121a2,2,0,0,1-2.06-2.14l.12-2.94a2.25,2.25,0,0,1,2.23-2.14h121a2,2,0,0,1,2,2.14l-.11,2.94A2.26,2.26,0,0,1,448.31,200.44Z" style="fill:#fff;opacity:0.6000000000000001"></path><path d="M447.87,211.42h-121a2,2,0,0,1-2.05-2.15l.12-2.94a2.24,2.24,0,0,1,2.22-2.14h121a2,2,0,0,1,2,2.14l-.12,2.94A2.24,2.24,0,0,1,447.87,211.42Z" style="fill:#fff;opacity:0.6000000000000001"></path><path d="M416.15,127.6a29.28,29.28,0,0,0-2.91-5.14l.82-.58a29.65,29.65,0,0,1,3,5.32Z" style="fill:#282462"></path><rect x="409.89" y="148.89" width="17.61" height="1" transform="translate(252.27 561.61) rotate(-87.65)" style="fill:#282462"></rect><path d="M412.23,235.32l3.82-94.72a26.51,26.51,0,0,0-26.69-27.81H226.59a26.5,26.5,0,0,1,26.69,27.81h0l-3.81,94.72c-.62,15.36,18.66,27.81,34,27.81H438.92A26.5,26.5,0,0,1,412.23,235.32Z" style="fill:#282462"></path><path d="M382.68,325.9H173.57a8.62,8.62,0,0,1-8.68-9l5.9-146.39a9.49,9.49,0,0,1,9.4-9H389.3a8.62,8.62,0,0,1,8.68,9l-5.89,146.39A9.51,9.51,0,0,1,382.68,325.9Z" style="fill:#fff"></path><path d="M382.68,326.4H173.57a9.13,9.13,0,0,1-9.18-9.56l5.9-146.39a10,10,0,0,1,9.9-9.52H389.3a9.11,9.11,0,0,1,9.18,9.56l-5.89,146.39A10,10,0,0,1,382.68,326.4ZM180.19,161.93a9,9,0,0,0-8.9,8.56l-5.9,146.39a8.12,8.12,0,0,0,8.18,8.52H382.68a9,9,0,0,0,8.91-8.56l5.89-146.39a8.12,8.12,0,0,0-8.18-8.52Z" style="fill:#282462"></path><path d="M383.41,169.46h-198a6.69,6.69,0,0,0-6.63,6.37L174,294.75H384.74l4.79-118.92A6.07,6.07,0,0,0,383.41,169.46Z" style="fill:#282462"></path><path d="M203.93,160.93,199.2,278.57a5.73,5.73,0,0,0,5.78,6H355.7a6.31,6.31,0,0,0,6.26-6l4.74-117.64Z" style="opacity:0.30000000000000004"></path><path d="M361.55,112.79h-135a29.19,29.19,0,0,0-28.92,27.81l-5.64,140a5.74,5.74,0,0,0,5.78,6H348.53a6.32,6.32,0,0,0,6.26-6l5.64-140a29.21,29.21,0,0,1,28.93-27.81Z" style="fill:#282462"></path><path d="M361.55,112.79h-135a29.19,29.19,0,0,0-28.92,27.81l-5.64,140a5.74,5.74,0,0,0,5.78,6H348.53a6.32,6.32,0,0,0,6.26-6l5.64-140a29.21,29.21,0,0,1,28.93-27.81Z" style="fill:#fff;opacity:0.7000000000000001"></path><path d="M393,295.25H165.78a.5.5,0,1,1,0-1H393a.5.5,0,0,1,0,1Z" style="fill:#282462"></path><path d="M345.79,209.42h-139a3.24,3.24,0,0,1-3.26-3.39l2.15-53.23a3.55,3.55,0,0,1,3.52-3.38h139a3.23,3.23,0,0,1,3.26,3.38L349.31,206A3.55,3.55,0,0,1,345.79,209.42Z" style="fill:#282462;opacity:0.1"></path><path d="M283,269.42H204.35A3.23,3.23,0,0,1,201.1,266L203,219.36A3.55,3.55,0,0,1,206.5,216h78.69a3.23,3.23,0,0,1,3.25,3.39L286.57,266A3.57,3.57,0,0,1,283,269.42Z" style="fill:#282462;opacity:0.6000000000000001"></path><polygon points="253 242.69 238.24 233.97 237.54 251.42 253 242.69" style="fill:#fff"></polygon><path d="M343.37,269.42H296.71a3.24,3.24,0,0,1-3.26-3.39l1.88-46.67a3.57,3.57,0,0,1,3.53-3.39h46.66a3.24,3.24,0,0,1,3.26,3.39L346.9,266A3.56,3.56,0,0,1,343.37,269.42Z" style="fill:#fff"></path><path d="M299.62,261.9l1.55-38.41a1.59,1.59,0,0,1,1.57-1.52h38.42a1.45,1.45,0,0,1,1.45,1.52l-1.55,38.41a1.58,1.58,0,0,1-1.57,1.52H301.07A1.45,1.45,0,0,1,299.62,261.9Z" style="fill:#282462;opacity:0.30000000000000004"></path><polygon points="328.39 244.97 326.29 248.33 319.43 235.75 302.12 263.42 338.45 263.42 328.39 244.97" style="fill:#282462"></polygon><path d="M338.18,230.9a5,5,0,0,1-5,4.8,4.57,4.57,0,0,1-4.6-4.8,5,5,0,0,1,5-4.79A4.57,4.57,0,0,1,338.18,230.9Z" style="fill:#fff"></path></g><g id="freepik--Character--inject-36"><path d="M105.31,137.66c1.26,5.83,2.61,16.53-1.44,20.57,3.26,3.06,7.5,6.58,14.49,6.6s5.68-4.72,3.79-7.19c-6.58-1.35-6.5-6.2-5.44-10.79Z" style="fill:#ff8b7b"></path><path d="M102.81,169.23c-2.49,5-5,10.14-7.45,15.22s-4.8,10.2-6.87,15.3c-.27.63-.51,1.27-.75,1.9l-.59,1.57a6.31,6.31,0,0,0-.28,2.36,25.48,25.48,0,0,0,1.59,6.91,98.46,98.46,0,0,0,7.09,14.7L90.84,231a64.53,64.53,0,0,1-11-14.6,31.74,31.74,0,0,1-3.42-9.53,16.45,16.45,0,0,1,.09-6.2l.2-.85c.08-.29.12-.4.18-.6l.33-1.09c.22-.73.43-1.46.67-2.17,1.88-5.71,4.09-11.15,6.44-16.52S89.24,168.82,92,163.6Z" style="fill:#ff8b7b"></path><path d="M94.11,158.76c-7.35,2.3-11.82,18-11.82,18l15.13,12.7A147.32,147.32,0,0,0,105,171.9C108.56,161.66,103,156,94.11,158.76Z" style="fill:#282462"></path><g style="opacity:0.2"><path d="M94.11,158.76c-7.35,2.3-11.82,18-11.82,18l15.13,12.7A147.32,147.32,0,0,0,105,171.9C108.56,161.66,103,156,94.11,158.76Z"></path></g><path d="M93.89,225.38l6,5.53L91.75,236s-4.88-5.67-2.38-8.74Z" style="fill:#ff8b7b"></path><path d="M100.51,239.4l-3.17,1.29a2.81,2.81,0,0,1-3.45-1.17L91.75,236l8.18-5.1,2,4.75A2.81,2.81,0,0,1,100.51,239.4Z" style="fill:#ff8b7b"></path><path d="M131.76,158.07c-11.9-2-26.41-2.64-37.5.52a5.89,5.89,0,0,0-4.06,7.08c6.68,28.9,4.75,58.09,5.4,64.27l42.92-.69c2.12-35.34-.3-57.27-1.64-66A6.24,6.24,0,0,0,131.76,158.07Z" style="fill:#282462"></path><path d="M134.93,162.16c3.76,3.59,7.63,7.25,11.48,10.78q2.9,2.67,5.82,5.19c1.93,1.68,3.91,3.31,5.82,4.69a23,23,0,0,0,2.57,1.67l.24.13.12,0,.06,0-.17,0h-.27c-.29,0-.19.09,0,.05a8.13,8.13,0,0,0,2.38-1A33.3,33.3,0,0,0,166,181.9a147.46,147.46,0,0,0,11.86-9.8l4.7,3.77a67.1,67.1,0,0,1-4.73,6.93,58.3,58.3,0,0,1-5.66,6.43,33.49,33.49,0,0,1-3.47,3,19.3,19.3,0,0,1-4.76,2.68,10.46,10.46,0,0,1-3.91.64,10,10,0,0,1-1.27-.13l-.65-.15-.42-.12-.83-.27-.69-.28a31.48,31.48,0,0,1-4.38-2.33A119.08,119.08,0,0,1,138.34,182c-4.15-3.61-8.1-7.28-12-11.21Z" style="fill:#ff8b7b"></path><path d="M121.52,165.4c-1.07,7.63,17,22.18,17,22.18l9.73-14.92s-2-3.81-9.21-10.57C131.64,155.15,122.7,157,121.52,165.4Z" style="fill:#282462"></path><path d="M327.13,196.74l-138.72,9.09a3.24,3.24,0,0,1-3.47-3.17l-1.34-53.25a3.56,3.56,0,0,1,3.29-3.61l138.73-9.09a3.23,3.23,0,0,1,3.46,3.17l1.35,53.25A3.56,3.56,0,0,1,327.13,196.74Z" style="fill:#fff;opacity:0.6000000000000001"></path><path d="M257.13,165.29l1.88,3.5a.26.26,0,0,0,.23.15l4,.32a.3.3,0,0,1,.19.51l-2.82,3a.32.32,0,0,0-.08.28l.78,3.93a.32.32,0,0,1-.43.36l-3.62-1.65a.31.31,0,0,0-.28,0l-3.52,2.11a.3.3,0,0,1-.45-.29l.58-4a.28.28,0,0,0-.09-.26l-3-2.63a.32.32,0,0,1,.16-.54l4-.84a.35.35,0,0,0,.23-.18l1.69-3.74A.3.3,0,0,1,257.13,165.29Z" style="fill:#282462"></path><path d="M281.34,163.7l1.87,3.51a.33.33,0,0,0,.24.15l4,.32a.3.3,0,0,1,.18.51l-2.81,3a.3.3,0,0,0-.08.27l.78,3.94a.32.32,0,0,1-.44.35l-3.61-1.65a.31.31,0,0,0-.28,0l-3.52,2.12a.3.3,0,0,1-.45-.3l.58-4a.31.31,0,0,0-.1-.27L274.75,169a.31.31,0,0,1,.15-.53l4-.84a.3.3,0,0,0,.22-.19l1.69-3.73A.31.31,0,0,1,281.34,163.7Z" style="fill:#282462"></path><path d="M305.55,162.11l1.87,3.51a.28.28,0,0,0,.23.15l4,.32a.3.3,0,0,1,.19.51l-2.82,3a.32.32,0,0,0-.08.28l.78,3.93a.31.31,0,0,1-.43.35l-3.61-1.64a.3.3,0,0,0-.29,0l-3.52,2.11a.3.3,0,0,1-.45-.29l.58-4a.28.28,0,0,0-.09-.26l-3-2.63a.32.32,0,0,1,.16-.54l4-.84a.33.33,0,0,0,.23-.18l1.69-3.74A.31.31,0,0,1,305.55,162.11Z" style="fill:#282462"></path><path d="M232.93,166.87l1.87,3.51a.33.33,0,0,0,.24.15l4,.32a.3.3,0,0,1,.18.51l-2.81,3a.3.3,0,0,0-.08.27l.78,3.94a.32.32,0,0,1-.44.35l-3.61-1.65a.31.31,0,0,0-.28,0l-3.52,2.12a.3.3,0,0,1-.45-.3l.58-4a.31.31,0,0,0-.1-.27l-2.95-2.63a.31.31,0,0,1,.15-.53l4-.84a.33.33,0,0,0,.22-.18l1.69-3.74A.31.31,0,0,1,232.93,166.87Z" style="fill:#282462"></path><path d="M208.72,168.46l1.88,3.5a.25.25,0,0,0,.23.15l4,.32a.3.3,0,0,1,.18.51l-2.81,3a.32.32,0,0,0-.08.28l.78,3.94a.32.32,0,0,1-.43.35l-3.62-1.65a.31.31,0,0,0-.28,0L205.05,181a.29.29,0,0,1-.45-.29l.58-4a.28.28,0,0,0-.09-.26l-3-2.63a.31.31,0,0,1,.16-.53l4-.85a.29.29,0,0,0,.22-.18l1.7-3.74A.3.3,0,0,1,208.72,168.46Z" style="fill:#282462"></path><path d="M176.84,173.2l5.54-7.3,6.14,6.85s-3.52,6.21-9.19,4.54Z" style="fill:#ff8b7b"></path><path d="M190.34,163.34l1.61,4a1.89,1.89,0,0,1-.34,2l-3.09,3.43-6.14-6.85,5.26-3.45A1.83,1.83,0,0,1,190.34,163.34Z" style="fill:#ff8b7b"></path><path d="M125.33,130.52c0,.65.4,1.16.82,1.15s.74-.55.71-1.2-.4-1.16-.82-1.15S125.3,129.87,125.33,130.52Z" style="fill:#263238"></path><path d="M125.75,131a23.8,23.8,0,0,0,3.35,5.43,3.68,3.68,0,0,1-3.06.68Z" style="fill:#ff5652"></path><path d="M124,127.19a.35.35,0,0,0,.32-.14,2.9,2.9,0,0,1,2.44-1.18.38.38,0,0,0,.41-.35.4.4,0,0,0-.36-.41,3.64,3.64,0,0,0-3.09,1.46.39.39,0,0,0,.28.62Z" style="fill:#263238"></path><path d="M103.53,128.83c.86,7.93,1,12.61,5.16,16.55,6.33,5.94,16,2,17.49-6,1.37-7.19-.27-19-8.19-21.86A10.71,10.71,0,0,0,103.53,128.83Z" style="fill:#ff8b7b"></path><path d="M119.44,133.33c1,3.06-1.11,9.61-1.77,11.61s-3.45,3.76-8.34,3.3a6.33,6.33,0,0,1-5.87-7c-2.18-.33-4.52-4.32-4.4-7.09s-4-5.65-4.5-8.35,1.77-6.45,4.77-4.56c-1.94-2-2.11-7,3.84-8,4.75-.75,9.66,1.78,13.33.34s8.53-2.39,9.6.55c2-1.17,5,1.17,4,4.78s-8.33,5.72-8.33,5.72S124.5,131.72,119.44,133.33Z" style="fill:#263238"></path><path d="M99.78,122.83a1,1,0,0,1-.77-.36c-1.82-2.2-4.24-7.38-.44-11.23a1,1,0,0,1,1.41,0,1,1,0,0,1,0,1.42c-3.48,3.52.39,8.35.56,8.55a1,1,0,0,1-.77,1.63Z" style="fill:#263238"></path><path d="M100.67,123.89a1,1,0,0,1-.78-.38c-.17-.2-4.09-5-8.26-2.3a1,1,0,0,1-1.08-1.69c4.55-2.92,9.12.52,10.9,2.74a1,1,0,0,1-.16,1.41A1,1,0,0,1,100.67,123.89Z" style="fill:#263238"></path><path d="M115.21,134.16a6.83,6.83,0,0,0,3.46,3.82c2.14,1,3.58-.78,3.29-3-.25-2-1.68-4.9-4-5S114.49,132.1,115.21,134.16Z" style="fill:#ff8b7b"></path><path d="M68.51,395.9a.2.2,0,0,1,0-.2.19.19,0,0,1,.19-.11c.41,0,4,.3,4.59,1.27a.59.59,0,0,1,0,.6h0a1,1,0,0,1-.76.61c-1.16.2-3-1.26-4-2.15ZM72.88,397c-.42-.49-2.27-.83-3.67-1,1.39,1.17,2.57,1.79,3.22,1.67a.65.65,0,0,0,.5-.4.25.25,0,0,0,0-.24Z" style="fill:#282462"></path><path d="M68.51,395.9a.05.05,0,0,1,0,0,.21.21,0,0,1,0-.19c.06-.07,1.32-1.81,2.63-2a1.38,1.38,0,0,1,1.07.27h0c.43.31.43.62.35.82-.32.85-2.85,1.34-3.91,1.21A.19.19,0,0,1,68.51,395.9Zm3.61-1.53a1.08,1.08,0,0,0-.15-.13h0a1,1,0,0,0-.79-.2A4.3,4.3,0,0,0,69,395.61c1.15,0,3-.48,3.16-1C72.2,394.58,72.23,394.5,72.12,394.37Zm-.41-.38h0Z" style="fill:#282462"></path><polygon points="60.02 395.26 67.84 397.11 75.37 379.82 67.55 377.97 60.02 395.26" style="fill:#ff8b7b"></polygon><path d="M68.76,395.76l-7.94-3.87a.61.61,0,0,0-.8.22l-3.8,6a1.33,1.33,0,0,0,.57,1.86c2.88,1.34,3.89,1.56,7.49,3.32,4.21,2.05,4,3.23,8.93,5.64,3,1.45,4.9-1.28,3.76-2.18a22.78,22.78,0,0,1-6.67-9.57A2.86,2.86,0,0,0,68.76,395.76Z" style="fill:#263238"></path><polygon points="75.37 379.82 71.27 389.24 63.66 386.89 67.54 377.97 75.37 379.82" style="opacity:0.2"></polygon><path d="M85.16,306.66c6.18-35.74,5.22-68.66,10.44-76.72l28.36-.46s-14.13,57.44-20.75,81.08c-6.87,24.57-27.61,75.11-27.61,75.11l-12.43-3.84S75.42,334,85.16,306.66Z" style="fill:#263238"></path><path d="M112.5,252.83c-6.09,8-5.68,30.4-5,41.86,2.4-9.14,5.07-19.58,7.54-29.39Z" style="opacity:0.2"></path><path d="M119.65,407.13a.19.19,0,0,1,0-.35c.36-.19,3.52-1.88,4.51-1.35a.62.62,0,0,1,.34.5h0a1,1,0,0,1-.32.93c-.85.8-3.16.52-4.46.28Zm4.23-1.39c-.61-.2-2.33.49-3.58,1.12,1.78.27,3.1.17,3.58-.28a.69.69,0,0,0,.2-.61.22.22,0,0,0-.13-.2Z" style="fill:#282462"></path><path d="M119.65,407.13l-.05,0a.18.18,0,0,1-.08-.17c0-.1.13-2.26,1.12-3.11a1.34,1.34,0,0,1,1-.35h0c.52,0,.68.31.73.52.18.91-1.67,2.67-2.62,3.12A.17.17,0,0,1,119.65,407.13Zm2.2-3.23-.19,0h0a1,1,0,0,0-.77.26,4.33,4.33,0,0,0-1,2.49c1-.61,2.21-2,2.1-2.54C122,404,122,404,121.85,403.9Zm-.18-.23Z" style="fill:#282462"></path><polygon points="111.13 408.01 119.15 407.89 119.49 389.27 111.48 389.39 111.13 408.01" style="fill:#ff8b7b"></polygon><path d="M119.77,407l-8.75.14a.6.6,0,0,0-.61.56l-.59,7.15a1.33,1.33,0,0,0,1.35,1.41c3.15-.1,7.68-.36,11.65-.42,4.63-.07,4.19.12,9.63,0,3.28-.05,3.74-3.39,2.32-3.67-6.46-1.28-7.11-1.35-13-4.61A4.13,4.13,0,0,0,119.77,407Z" style="fill:#263238"></path><polygon points="119.49 389.27 119.32 398.87 111.3 399 111.47 389.4 119.49 389.27" style="opacity:0.2"></polygon><path d="M113.37,308.92c-1.23-37.45-9.09-58.92-8.37-79.13l33.49-.54s-3.35,58.16-5.8,82.58c-2.54,25.39-10.37,83.82-10.37,83.82l-13.6.21S110,340.78,113.37,308.92Z" style="fill:#263238"></path><path d="M119.93,394.19h0a.25.25,0,0,1-.23-.27c.91-9.32,2.58-23.16,4.36-37.8,1.93-16,3.94-32.54,5.07-44.31,2.16-22.49,5.67-70.18,5.77-75.6a7.94,7.94,0,0,1-5.76-4.68.25.25,0,0,1,.16-.32.24.24,0,0,1,.31.15,7.43,7.43,0,0,0,5.59,4.39.26.26,0,0,1,.21.25c0,4.27-3.59,53-5.78,75.86-1.14,11.78-3.14,28.32-5.08,44.31-1.77,14.65-3.44,28.48-4.35,37.8A.24.24,0,0,1,119.93,394.19Z" style="fill:#fff;opacity:0.30000000000000004"></path><polygon points="123.18 397.26 107.02 397.51 106.34 392.28 124.38 391.72 123.18 397.26" style="fill:#263238"></polygon><polygon points="76.54 388.76 61.02 383.99 61.65 378.73 79.03 383.78 76.54 388.76" style="fill:#263238"></polygon></g></svg>