<svg xmlns="http://www.w3.org/2000/svg" viewBox="0 0 500 500"><g id="freepik--Document--inject-2"><polygon points="374.2 107.73 352.17 102.59 343.1 141.5 371.8 148.19 379.32 115.97 374.2 107.73" style="fill:#282462"></polygon><polygon points="374.2 107.73 352.17 102.59 343.1 141.5 371.8 148.19 379.32 115.97 374.2 107.73" style="fill:#fff;opacity:0.5"></polygon><polygon points="374.2 107.73 372.64 114.41 379.32 115.97 374.2 107.73" style="fill:#fff;opacity:0.4"></polygon><path d="M372,120.91,355,117a.86.86,0,0,1-.64-1h0a.86.86,0,0,1,1-.64l16.94,4a.86.86,0,0,1,.64,1h0A.86.86,0,0,1,372,120.91Z" style="fill:#282462"></path><path d="M368,123.51l-13.78-3.22a.86.86,0,0,1-.64-1h0a.84.84,0,0,1,1-.63l13.79,3.21a.86.86,0,0,1,.64,1h0A.87.87,0,0,1,368,123.51Z" style="fill:#282462"></path><path d="M367.56,126.9l-14.09-3.28a.87.87,0,0,1-.64-1h0a.87.87,0,0,1,1-.64L368,125.24a.87.87,0,0,1,.64,1h0A.85.85,0,0,1,367.56,126.9Z" style="fill:#282462"></path><path d="M369.63,130.9l-16.94-4a.85.85,0,0,1-.63-1h0a.84.84,0,0,1,1-.64L370,129.23a.86.86,0,0,1,.64,1h0A.87.87,0,0,1,369.63,130.9Z" style="fill:#282462"></path><path d="M365.71,133.49l-13.79-3.22a.84.84,0,0,1-.64-1h0a.86.86,0,0,1,1-.64l13.78,3.21a.86.86,0,0,1,.64,1h0A.84.84,0,0,1,365.71,133.49Z" style="fill:#282462"></path><path d="M365.23,136.89l-14.09-3.29a.87.87,0,0,1-.64-1h0a.86.86,0,0,1,1-.63l14.09,3.28a.86.86,0,0,1,.64,1h0A.87.87,0,0,1,365.23,136.89Z" style="fill:#282462"></path></g><g id="freepik--speech-bubble--inject-2"><path d="M149.2,94.63a18.54,18.54,0,1,0-16,23.89l6.24,7.43,1-9.65A18.53,18.53,0,0,0,149.2,94.63Z" style="fill:#282462"></path><path d="M136.78,95.83l-.84,4.82,3.53-.75-.23,3.17-3.89.83-.85,4.76-3.18.68.85-4.77-3.94.84-.85,4.76-3.15.67.85-4.76-3.54.75.2-3.16,3.92-.84.87-4.82-3.53.75.22-3.17,3.9-.82L128,90l3.15-.67-.85,4.77,3.94-.84.85-4.77,3.15-.67-.85,4.77,3.57-.76L140.72,95Zm-3.15.67-3.95.84-.87,4.83,3.95-.84Z" style="fill:#fff"></path></g><g id="freepik--Photo--inject-2"><rect x="85.89" y="261.4" width="55.15" height="36.26" transform="translate(60.6 -17.48) rotate(12)" style="fill:#282462"></rect><rect x="85.89" y="261.4" width="55.15" height="36.26" transform="translate(60.6 -17.48) rotate(12)" style="fill:#fff;opacity:0.6000000000000001"></rect><polygon points="104.61 279.32 85.05 292.02 117.31 298.88 104.61 279.32" style="fill:#282462"></polygon><polygon points="104.61 279.32 85.05 292.02 117.31 298.88 104.61 279.32" style="fill:#fff;opacity:0.30000000000000004"></polygon><polygon points="136.12 302.88 125.92 272.17 104.11 296.07 136.12 302.88" style="fill:#282462"></polygon><circle cx="110.56" cy="272.24" r="3.31" transform="translate(-130.44 104.14) rotate(-33)" style="fill:#fff;opacity:0.8"></circle><path d="M137.44,304.18,81.54,292.3l8-37.42,55.9,11.88ZM83.91,290.76l52,11.05L143,268.3,91,257.25Z" style="fill:#282462"></path></g><g id="freepik--Icons--inject-2"><circle cx="372.64" cy="279.72" r="20.8" transform="translate(-78.68 163.9) rotate(-22.5)" style="fill:#282462"></circle><circle cx="372.64" cy="279.72" r="20.8" transform="translate(-78.68 163.9) rotate(-22.5)" style="fill:#fff;opacity:0.6000000000000001"></circle><path d="M382.29,274.83a5.22,5.22,0,0,0-1.59-3.35,5.43,5.43,0,0,0-3.6-1.45,70.69,70.69,0,0,0-9.7.1,5,5,0,0,0-4.24,3.81c-.47,1.67-.38,9.36-.1,11a5,5,0,0,0,3.94,4.28c1.55.4,9.15.35,10.86.07a5,5,0,0,0,4.29-3.92C382.6,283.67,382.44,276.38,382.29,274.83Zm-1.81,9.8a3.32,3.32,0,0,1-3.12,3c-1.58.17-8.65.26-10.12-.15a3.22,3.22,0,0,1-2.44-2.77,66.55,66.55,0,0,1,0-9.89,3.32,3.32,0,0,1,3.11-3,67.52,67.52,0,0,1,9.65,0,3.32,3.32,0,0,1,3,3.12A68.84,68.84,0,0,1,380.48,284.63Zm-7.84-9.94a5,5,0,1,0,5,5A5,5,0,0,0,372.64,274.69Zm0,8.28a3.26,3.26,0,1,1,3.28-3.24A3.25,3.25,0,0,1,372.61,283ZM379,274.5a1.18,1.18,0,1,1-1.17-1.18A1.17,1.17,0,0,1,379,274.5Z" style="fill:#282462"></path><path d="M293.33,109.15a7.07,7.07,0,0,1-6.56-4.89,6.84,6.84,0,0,0,3-.09s0,0,.1,0a7.07,7.07,0,0,1-4.57-3.24,6.76,6.76,0,0,1-1-3.74,6.92,6.92,0,0,0,3.13.85,7.09,7.09,0,0,1-2.14-9.37A20.13,20.13,0,0,0,299.8,96c0-.28-.08-.52-.11-.77a6.86,6.86,0,0,1,1-4.61,6.77,6.77,0,0,1,4.78-3.18,6.87,6.87,0,0,1,6.16,2,.36.36,0,0,0,.38.12,14.34,14.34,0,0,0,4.09-1.58.31.31,0,0,1,.1-.05h0a7.21,7.21,0,0,1-3,3.83,13.71,13.71,0,0,0,3.92-1l0,0c-.27.35-.53.71-.81,1a14.43,14.43,0,0,1-2.56,2.44.24.24,0,0,0-.12.22,19.12,19.12,0,0,1-.13,3.12A21,21,0,0,1,308,109.35a18.84,18.84,0,0,1-9.68,5.39,21.53,21.53,0,0,1-3.92.47,19.83,19.83,0,0,1-11.27-3,1.5,1.5,0,0,1-.17-.11,14.19,14.19,0,0,0,10.4-2.92Z" style="fill:#282462;fill-rule:evenodd;mix-blend-mode:multiply"></path><circle cx="90.72" cy="215.88" r="18.23" transform="translate(-136.91 270.85) rotate(-80.78)" style="fill:#282462"></circle><circle cx="90.72" cy="215.88" r="18.23" transform="translate(-136.91 270.85) rotate(-80.78)" style="fill:#fff;opacity:0.6000000000000001"></circle><path d="M93.79,209.33c.62,0,1.23,0,1.84,0h.26v-3.18c-.33,0-.67-.08-1-.1-.62,0-1.25-.06-1.88,0a4.57,4.57,0,0,0-2.67.82,4,4,0,0,0-1.6,2.66,8.94,8.94,0,0,0-.11,1.37c0,.71,0,1.43,0,2.14v.27h-3v3.56h3v9H92.3v-8.93h3c.16-1.19.31-2.36.46-3.58H92.27s0-1.76,0-2.53C92.33,209.68,93,209.36,93.79,209.33Z" style="fill:#282462;fill-rule:evenodd"></path></g></svg>
